<svg width="24" height="24" viewBox="0 0 24 24" fill="none" xmlns="http://www.w3.org/2000/svg">
<circle cx="12" cy="12" r="12" fill="white"/>
<path d="M24 12.0441C24 5.39234 18.6274 -6.33409e-07 12 -6.33409e-07C5.37259 -6.33409e-07 0 5.39234 0 12.0441C0 17.6925 3.87432 22.432 9.10109 23.7335V15.7246H6.62659V12.0441H9.10109V10.4582C9.10109 6.35876 10.9495 4.45868 14.9594 4.45868C15.7196 4.45868 17.0314 4.60827 17.568 4.7579V8.09431C17.2848 8.0644 16.7929 8.04941 16.1817 8.04941C14.214 8.04941 13.4538 8.7975 13.4538 10.7425V12.0441H17.3734L16.7001 15.7246H13.4538V24C19.3955 23.2797 24 18.2019 24 12.0441Z" fill="#0866FF"/>
</svg>
