<svg width="24" height="24" viewBox="0 0 24 24" fill="none" xmlns="http://www.w3.org/2000/svg">
<rect width="24" height="24" rx="12" fill="url(#paint0_linear_27_39)"/>
<path d="M8.68678 4.05595C7.83557 4.09611 7.25429 4.23195 6.74612 4.43163C6.2202 4.63659 5.77443 4.91163 5.33091 5.35675C4.88738 5.80188 4.61426 6.24796 4.41074 6.77468C4.21378 7.28396 4.08033 7.86572 4.04273 8.71741C4.00513 9.56909 3.99681 9.84285 4.00097 12.0153C4.00513 14.1878 4.01473 14.4601 4.05601 15.3136C4.09665 16.1646 4.23202 16.7458 4.4317 17.2541C4.63698 17.78 4.9117 18.2256 5.35699 18.6693C5.80227 19.113 6.24804 19.3854 6.77604 19.5893C7.28485 19.7859 7.86677 19.92 8.7183 19.9573C9.56983 19.9946 9.84391 20.0032 12.0158 19.999C14.1876 19.9949 14.4611 19.9853 15.3144 19.9448C16.1677 19.9043 16.7457 19.768 17.2542 19.5693C17.7802 19.3635 18.2261 19.0893 18.6694 18.6438C19.1128 18.1984 19.3858 17.752 19.5891 17.225C19.7863 16.7162 19.9202 16.1342 19.9571 15.2833C19.9944 14.4294 20.0032 14.1568 19.9991 11.9846C19.9949 9.81245 19.9851 9.54013 19.9447 8.68701C19.9042 7.83388 19.7687 7.25452 19.5691 6.74588C19.3635 6.21996 19.0891 5.77468 18.644 5.33067C18.1989 4.88667 17.7522 4.61387 17.2253 4.41099C16.7161 4.21403 16.1345 4.07979 15.283 4.04299C14.4315 4.00619 14.1574 3.99675 11.9847 4.00091C9.81207 4.00507 9.54007 4.01435 8.68678 4.05595ZM8.78022 18.5181C8.00021 18.4842 7.57669 18.3546 7.29445 18.2461C6.92068 18.1021 6.65444 17.928 6.37316 17.6494C6.09187 17.3709 5.91907 17.1037 5.77315 16.7307C5.66355 16.4485 5.53155 16.0254 5.49507 15.2454C5.45539 14.4024 5.44707 14.1493 5.44243 12.0134C5.43779 9.87757 5.44595 9.62477 5.48291 8.78141C5.51619 8.00204 5.64659 7.57804 5.75491 7.29596C5.89891 6.92172 6.07235 6.65596 6.35156 6.37484C6.63076 6.09372 6.89716 5.9206 7.27045 5.77468C7.55237 5.6646 7.97541 5.53372 8.7551 5.4966C9.59879 5.4566 9.85159 5.4486 11.9871 5.44396C14.1227 5.43932 14.3761 5.44732 15.2201 5.48444C15.9995 5.51836 16.4237 5.64748 16.7054 5.75644C17.0793 5.90044 17.3454 6.0734 17.6266 6.35308C17.9077 6.63276 18.081 6.8982 18.2269 7.27228C18.3371 7.5534 18.468 7.97628 18.5048 8.75645C18.545 9.60013 18.5541 9.85309 18.5579 11.9885C18.5618 14.1238 18.5542 14.3774 18.5173 15.2205C18.4832 16.0005 18.3539 16.4242 18.2453 16.7067C18.1013 17.0803 17.9277 17.3467 17.6483 17.6277C17.3689 17.9086 17.1029 18.0818 16.7294 18.2277C16.4478 18.3376 16.0243 18.4688 15.2452 18.5059C14.4016 18.5456 14.1488 18.5539 12.0124 18.5586C9.87607 18.5632 9.62407 18.5546 8.78038 18.5181M15.302 7.72428C15.3024 7.91417 15.359 8.09969 15.4648 8.25739C15.5705 8.4151 15.7207 8.53789 15.8962 8.61025C16.0718 8.68261 16.2649 8.70128 16.451 8.6639C16.6372 8.62652 16.8081 8.53477 16.9421 8.40026C17.0762 8.26575 17.1673 8.09451 17.204 7.9082C17.2407 7.7219 17.2213 7.5289 17.1483 7.3536C17.0753 7.17831 16.9519 7.02861 16.7938 6.92343C16.6358 6.81824 16.45 6.7623 16.2601 6.76268C16.0056 6.76319 15.7617 6.86478 15.582 7.0451C15.4023 7.22543 15.3016 7.46973 15.302 7.72428ZM7.89237 12.008C7.89685 14.2768 9.73943 16.1118 12.0078 16.1075C14.2761 16.1032 16.1125 14.2608 16.1081 11.992C16.1038 9.72317 14.2608 7.88764 11.9921 7.89212C9.72343 7.8966 7.88805 9.73949 7.89237 12.008ZM9.33335 12.0051C9.3323 11.4777 9.48769 10.9618 9.77984 10.5227C10.072 10.0835 10.4878 9.74091 10.9747 9.53811C11.4616 9.33531 11.9977 9.28144 12.5152 9.38331C13.0327 9.48518 13.5083 9.73822 13.882 10.1104C14.2557 10.4826 14.5106 10.9573 14.6146 11.4744C14.7185 11.9915 14.6667 12.5278 14.4659 13.0155C14.265 13.5031 13.924 13.9203 13.486 14.2142C13.0481 14.5081 12.5328 14.6655 12.0054 14.6665C11.6552 14.6673 11.3082 14.599 10.9844 14.4657C10.6606 14.3323 10.3662 14.1365 10.1181 13.8893C9.86993 13.6422 9.67292 13.3486 9.53828 13.0253C9.40363 12.702 9.334 12.3553 9.33335 12.0051Z" fill="white"/>
<defs>
<linearGradient id="paint0_linear_27_39" x1="-5.0338e-07" y1="24" x2="24" y2="0.5" gradientUnits="userSpaceOnUse">
<stop stop-color="#FFD600"/>
<stop offset="0.25" stop-color="#FF7A00"/>
<stop offset="0.5" stop-color="#FF0069"/>
<stop offset="0.75" stop-color="#D300C5"/>
<stop offset="1" stop-color="#7638FA"/>
</linearGradient>
</defs>
</svg>
