<svg width="24" height="24" viewBox="0 0 24 24" fill="none" xmlns="http://www.w3.org/2000/svg">
<circle cx="12" cy="12" r="12" fill="black"/>
<path d="M12.1413 21H12.1359C9.4148 20.982 7.32292 20.0964 5.91679 18.3684C4.6675 16.8294 4.02189 14.6892 4 12.0072V11.9946C4.02189 9.3108 4.6675 7.1724 5.91861 5.6334C7.32292 3.9036 9.41662 3.018 12.1359 3H12.1413H12.1468C14.2332 3.0144 15.9786 3.5436 17.3336 4.5732C18.6085 5.5416 19.5058 6.9204 20 8.6736L18.4498 9.1002C17.6109 6.1302 15.488 4.6128 12.1395 4.5894C9.9291 4.6056 8.2567 5.2914 7.16973 6.627C6.15388 7.878 5.62863 9.6852 5.60857 12C5.62863 14.3148 6.15388 16.122 7.17155 17.373C8.25852 18.7104 9.93092 19.3962 12.1413 19.4106C14.1347 19.3962 15.4533 18.9372 16.5494 17.877C17.8005 16.6674 17.7786 15.1824 17.3774 14.2788C17.1421 13.746 16.7136 13.3032 16.1354 12.9666C15.9895 13.98 15.6631 14.8008 15.1597 15.42C14.4867 16.2462 13.5329 16.698 12.3255 16.7628C11.4118 16.8114 10.5309 16.599 9.84885 16.1616C9.04092 15.645 8.56856 14.8566 8.5175 13.9386C8.46825 13.0458 8.82754 12.225 9.52787 11.6274C10.1972 11.0568 11.1383 10.722 12.2508 10.659C13.0696 10.614 13.8375 10.65 14.5451 10.7652C14.4502 10.209 14.2606 9.7662 13.9761 9.4476C13.5858 9.0084 12.9821 8.7852 12.1833 8.7798C12.176 8.7798 12.1687 8.7798 12.1614 8.7798C11.5194 8.7798 10.6477 8.9544 10.0932 9.7698L8.75824 8.886C9.50234 7.7952 10.7097 7.194 12.1614 7.194C12.1723 7.194 12.1833 7.194 12.1942 7.194C14.6217 7.2084 16.0679 8.6754 16.212 11.235C16.2941 11.2692 16.3762 11.3052 16.4564 11.3412C17.589 11.8668 18.417 12.6624 18.8528 13.6434C19.4583 15.0096 19.5149 17.2362 17.6765 19.0128C16.2704 20.37 14.5651 20.9838 12.1468 21H12.1413ZM12.9037 12.2322C12.7195 12.2322 12.5335 12.2376 12.342 12.2484C10.9468 12.3258 10.0768 12.9576 10.1261 13.8558C10.1771 14.7972 11.2295 15.2346 12.2417 15.1806C13.1718 15.132 14.3828 14.7738 14.587 12.3978C14.0727 12.288 13.5092 12.2322 12.9037 12.2322Z" fill="white"/>
</svg>
