<svg width="24" height="24" viewBox="0 0 24 24" fill="none" xmlns="http://www.w3.org/2000/svg">
<path d="M0 12C0 18.6274 5.37258 24 12 24C18.6274 24 24 18.6274 24 12C24 5.37258 18.6274 5.36442e-07 12 5.36442e-07C5.37258 5.36442e-07 0 5.37258 0 12Z" fill="black"/>
<mask id="mask0_27_62" style="mask-type:luminance" maskUnits="userSpaceOnUse" x="0" y="0" width="24" height="24">
<path d="M0 5.36442e-07H24V24H0V5.36442e-07Z" fill="white"/>
</mask>
<g mask="url(#mask0_27_62)">
<path d="M10.4072 10.2842V9.63272C10.189 9.60304 9.96745 9.58448 9.74133 9.58448C7.01665 9.58448 4.80005 11.8012 4.80005 14.5258C4.80005 16.1976 5.63529 17.6769 6.90953 18.5716C6.08713 17.6886 5.59901 16.506 5.59901 15.207C5.59901 12.5215 7.73637 10.3466 10.4072 10.2842Z" fill="#25F4EE"/>
<path d="M10.5239 17.4776C11.7395 17.4776 12.7454 16.4967 12.7905 15.2918L12.8007 4.54836L14.7491 4.54908L14.7461 4.53292C14.7051 4.31188 14.6827 4.08444 14.6827 3.85172H11.9981L11.9937 14.6106C11.9486 15.8154 10.957 16.7824 9.74138 16.7824C9.36358 16.7824 9.00778 16.688 8.69458 16.5232C9.10474 17.0916 9.77098 17.4776 10.5239 17.4776Z" fill="#25F4EE"/>
<path d="M18.4175 8.21689V7.58661C17.6677 7.58661 16.9693 7.36369 16.3835 6.98181C16.905 7.58077 17.6134 8.04477 18.4175 8.21689Z" fill="#25F4EE"/>
<path d="M16.3836 6.9818C15.8122 6.3256 15.465 5.46928 15.465 4.53296H14.7336C14.923 5.55584 15.5424 6.43336 16.3836 6.9818Z" fill="#FE2C55"/>
<path d="M9.74137 12.2486C8.49709 12.2486 7.46973 13.2814 7.46973 14.5258C7.46973 15.3923 7.97629 16.1452 8.69457 16.5232C8.42689 16.1522 8.26721 15.6984 8.26721 15.207C8.26721 13.9627 9.27961 12.9503 10.5239 12.9503C10.7562 12.9503 10.979 12.9886 11.1898 13.0546V10.3139C10.9716 10.2843 10.75 10.2657 10.5239 10.2657C10.4848 10.2657 10.4461 10.2677 10.4072 10.2687L10.3969 10.2692L10.3896 12.3437C10.1788 12.2777 9.97365 12.2486 9.74137 12.2486Z" fill="#FE2C55"/>
<path d="M18.4174 8.18465L18.4049 8.18221L18.4043 10.2551C17.0123 10.2551 15.7189 9.79693 14.666 9.04117L14.6668 14.5257C14.6668 17.2505 12.4659 19.4533 9.74122 19.4533C8.6883 19.4533 7.71202 19.1349 6.90942 18.5715C7.81218 19.5405 9.09802 20.1483 10.5237 20.1483C13.2484 20.1483 15.465 17.9317 15.465 15.207V9.75129C16.5179 10.5071 17.8079 10.9524 19.1999 10.9524V8.26777C18.9316 8.26777 18.6699 8.23873 18.4174 8.18465Z" fill="#FE2C55"/>
<path d="M14.6826 14.5258V9.07013C15.7356 9.82589 17.0256 10.2712 18.4176 10.2712V8.18473C17.6135 8.01257 16.9052 7.58081 16.3836 6.98181C15.5425 6.43337 14.9354 5.55585 14.746 4.53297H12.7806L12.7762 15.2919C12.7311 16.4967 11.7395 17.4637 10.5239 17.4637C9.77096 17.4637 9.10472 17.0916 8.69456 16.5232C7.97628 16.1452 7.48468 15.3923 7.48468 14.5258C7.48468 13.2814 8.49708 12.2691 9.74136 12.2691C9.97364 12.2691 10.1964 12.3074 10.4072 12.3734V10.2686C7.73644 10.331 5.58264 12.5215 5.58264 15.207C5.58264 16.506 6.08716 17.6886 6.90956 18.5716C7.71216 19.135 8.68844 19.4671 9.74136 19.4671C12.466 19.4671 14.6826 17.2505 14.6826 14.5258Z" fill="white"/>
</g>
</svg>
